#!OML:ASF X:\für Bonn\!DataBase\2005_08_11_Bastian_Final\c3d\Bastian.ASF
:FULLY-SPECIFIED
:DEGREES
31
root 0.316546 16.7406 -0.272888 170.343 -9.04511 -175.044
lowerback 22.7879 -1.80644 1.74159
upperback 5.80284 -2.97656 0.931467
thorax -6.35341 -1.91642 0.887184
lowerneck -14.4067 -6.02199 -2.81997
upperneck -1.25025 -8.32771 7.19418
head 2.58679 -4.13046 2.27652
rclavicle 1.49089e-015 -1.19271e-015
rhumerus 76.7936 12.0918 20.7566
rradius 42.286
rwrist -75.3966
rhand -48.974 -5.31929
rfingers 7.12502
rthumb -21.604 -34.1342
lclavicle 1.49089e-015 -1.19271e-015
lhumerus 74.857 -19.3473 -12.0529
lradius 29.315
lwrist 13.3494
lhand -44.7712 18.048
lfingers 7.12502
lthumb -17.5635 47.2747
rfemur -21.2097 -8.59824 23.6809
rtibia 71.8481
rfoot -8.89333 -7.44526
rtoes 0.796373
lfemur -18.9592 5.91183 -14.2367
ltibia 67.4305
lfoot -13.0486 -3.09878
ltoes -20.0671
32
root 0.333056 16.6134 -0.257435 170.172 -9.20712 -174.906
lowerback 23.3 -1.79093 1.87515
upperback 5.80186 -2.92874 1.00161
thorax -6.61784 -1.90287 0.900141
lowerneck -14.3435 -6.1142 -3.00898
upperneck -1.44573 -8.42327 7.27535
head 2.52822 -4.18466 2.3333
rclavicle 1.88845e-014 -9.54166e-015
rhumerus 76.374 11.7619 20.7699
rradius 42.4853
rwrist -76.0827
rhand -49.246 -5.16642
rfingers 7.12502
rthumb -21.8652 -33.951
lclavicle 1.88845e-014 -9.54166e-015
lhumerus 74.8794 -18.9924 -12.2418
lradius 29.4565
lwrist 13.5502
lhand -44.9869 18.0283
lfingers 7.12502
lthumb -17.7711 47.2363
rfemur -21.8687 -8.45485 23.6723
rtibia 72.9845
rfoot -8.83307 -7.49984
rtoes 0.357724
lfemur -20.4292 5.86325 -14.0375
ltibia 69.7517
lfoot -13.2977 -3.51838
ltoes -19.482
33
root 0.349381 16.4676 -0.243771 170.009 -9.36265 -174.808
lowerback 23.7683 -1.76449 1.98461
upperback 5.81457 -2.87416 1.05133
thorax -6.84415 -1.88631 0.899679
lowerneck -14.2905 -6.22029 -3.16537
upperneck -1.65347 -8.54237 7.32942
head 2.46543 -4.25203 2.37321
rclavicle -1.77912e-014 6.75868e-015
rhumerus 75.9169 11.3176 20.7595
rradius 42.6726
rwrist -76.7314
rhand -49.3862 -5.13068
rfingers 7.12502
rthumb -21.9999 -33.8995
lclavicle -1.77912e-014 6.75868e-015
lhumerus 74.9904 -18.563 -12.7847
lradius 29.6547
lwrist 14.0083
lhand -45.2362 18.2321
lfingers 7.12502
lthumb -18.0109 47.4182
rfemur -22.5093 -8.30297 23.6033
rtibia 74.1708
rfoot -9.22012 -7.49516
rtoes -1.12472
lfemur -21.8328 5.7555 -13.8801
ltibia 71.9428
lfoot -13.7122 -4.01942
ltoes -19.1808
34
root 0.365934 16.3026 -0.232032 169.869 -9.50319 -174.802
lowerback 24.2249 -1.72728 1.99089
upperback 5.80185 -2.825 1.07125
thorax -7.08963 -1.86838 0.926836
lowerneck -14.1808 -6.30039 -3.32034
upperneck -1.84094 -8.62779 7.4171
head 2.4 -4.30089 2.42831
rclavicle 3.20043e-014 -5.96354e-015
rhumerus 75.4992 10.8276 20.7444
rradius 42.8222
rwrist -77.3614
rhand -49.4475 -5.10996
rfingers 7.12502
rthumb -22.0588 -33.8719
lclavicle 3.20043e-014 -5.96354e-015
lhumerus 75.0905 -18.1255 -13.5385
lradius 29.9305
lwrist 14.7616
lhand -45.5274 18.4807
lfingers 7.12502
lthumb -18.2911 47.6407
rfemur -23.1494 -8.17868 23.4393
rtibia 75.4306
rfoot -10.0658 -7.22718
rtoes -3.13537
lfemur -23.1841 5.57065 -13.8299
ltibia 74.0315
lfoot -14.303 -4.54518
ltoes -19.317
35
root 0.38192 16.1199 -0.220919 169.743 -9.63366 -174.792
lowerback 24.6831 -1.70296 1.98121
upperback 5.7577 -2.78916 1.10294
thorax -7.36914 -1.85413 0.980669
lowerneck -13.98 -6.37412 -3.50637
upperneck -2.05995 -8.69882 7.5147
head 2.30934 -4.34372 2.49643
rclavicle 1.68967e-015 3.18055e-015
rhumerus 75.1631 10.3661 20.5862
rradius 42.8835
rwrist -77.7221
rhand -49.3566 -5.23259
rfingers 7.12502
rthumb -21.9715 -34.0048
lclavicle 1.68967e-015 3.18055e-015
lhumerus 75.1925 -17.6985 -14.6251
lradius 30.2909
lwrist 15.9165
lhand -45.9049 18.7984
lfingers 7.12502
lthumb -18.6543 47.924
rfemur -23.7937 -8.10475 23.2904
rtibia 76.778
rfoot -11.237 -6.91565
rtoes -4.86086
lfemur -24.4897 5.29684 -13.7682
ltibia 76.0328
lfoot -15.0848 -5.0798
ltoes -19.8606
36
root 0.398076 15.9232 -0.211819 169.617 -9.73122 -174.764
lowerback 25.1343 -1.6882 1.97698
upperback 5.69777 -2.76124 1.13375
thorax -7.66273 -1.84233 1.03288
lowerneck -13.7686 -6.42252 -3.68007
upperneck -2.2611 -8.73783 7.59946
head 2.22008 -4.37005 2.56087
rclavicle 1.33186e-014 -4.37326e-015
rhumerus 74.9011 9.89702 20.3643
rradius 42.9087
rwrist -77.9654
rhand -49.2305 -5.35212
rfingers 7.12502
rthumb -21.8503 -34.1385
lclavicle 1.33186e-014 -4.37326e-015
lhumerus 75.2294 -17.2616 -15.8485
lradius 30.7185
lwrist 17.2722
lhand -46.2704 19.1123
lfingers 7.12502
lthumb -19.0058 48.2037
rfemur -24.4223 -8.04793 23.1768
rtibia 78.2212
rfoot -12.7134 -6.58895
rtoes -6.18101
lfemur -25.7225 4.94342 -13.6638
ltibia 77.9582
lfoot -15.9939 -5.59703
ltoes -20.5069
37
root 0.413799 15.7118 -0.203341 169.533 -9.8109 -174.759
lowerback 25.5112 -1.66351 1.93009
upperback 5.66008 -2.73522 1.16867
thorax -7.89202 -1.83139 1.11007
lowerneck -13.5835 -6.46039 -3.86226
upperneck -2.47854 -8.76466 7.70198
head 2.13128 -4.39087 2.63342
rclavicle 2.42517e-014 -1.39149e-014
rhumerus 74.674 9.34816 20.1168
rradius 42.8687
rwrist -78.1144
rhand -49.0333 -5.4253
rfingers 7.12502
rthumb -21.661 -34.2336
lclavicle 2.42517e-014 -1.39149e-014
lhumerus 75.2123 -16.7404 -17.2122
lradius 31.2066
lwrist 18.8751
lhand -46.6641 19.3807
lfingers 7.12502
lthumb -19.3843 48.4346
rfemur -25.1139 -8.01996 23.0308
rtibia 79.7976
rfoot -14.3974 -6.21978
rtoes -7.26718
lfemur -26.914 4.53134 -13.5884
ltibia 79.7975
lfoot -17.1715 -6.0426
ltoes -21.1176
38
root 0.42951 15.4866 -0.195182 169.48 -9.86453 -174.778
lowerback 25.8453 -1.63714 1.88117
upperback 5.62818 -2.71064 1.16946
thorax -8.09479 -1.82054 1.14887
lowerneck -13.4532 -6.48396 -3.95595
upperneck -2.67285 -8.78755 7.78172
head 2.05376 -4.4101 2.68104
rclavicle 1.88845e-014 -9.54166e-015
rhumerus 74.4562 8.77391 19.8417
rradius 42.8123
rwrist -78.2188
rhand -48.8534 -5.53005
rfingers 7.12502
rthumb -21.4882 -34.3582
lclavicle 1.88845e-014 -9.54166e-015
lhumerus 75.0708 -16.1567 -18.0119
lradius 31.5482
lwrist 19.9955
lhand -46.9514 19.424
lfingers 7.12502
lthumb -19.6606 48.4498
rfemur -25.8491 -7.9641 22.8674
rtibia 81.518
rfoot -16.3908 -5.84813
rtoes -8.01807
lfemur -28.0543 4.12241 -13.5238
ltibia 81.5766
lfoot -18.5943 -6.43883
ltoes -21.5768
39
root 0.44498 15.2525 -0.187985 169.466 -9.91 -174.78
lowerback 26.1389 -1.6235 1.85961
upperback 5.57482 -2.69108 1.15675
thorax -8.30278 -1.80987 1.15718
lowerneck -13.2521 -6.50157 -4.06259
upperneck -2.90292 -8.80279 7.90715
head 1.95504 -4.4267 2.74952
rclavicle -1.58034e-014 4.37326e-015
rhumerus 74.2492 8.19949 19.6396
rradius 42.7578
rwrist -78.3376
rhand -48.726 -5.61696
rfingers 7.12502
rthumb -21.3658 -34.459
lclavicle -1.58034e-014 4.37326e-015
lhumerus 74.8259 -15.5669 -17.9681
lradius 31.613
lwrist 20.3458
lhand -46.9996 19.1211
lfingers 7.12502
lthumb -19.7069 48.1422
rfemur -26.6267 -7.95559 22.7205
rtibia 83.3748
rfoot -18.428 -5.45855
rtoes -8.87251
lfemur -29.1748 3.69056 -13.4332
ltibia 83.3743
lfoot -20.2734 -6.81777
ltoes -21.4655
40
root 0.459844 15.0128 -0.180272 169.489 -9.91248 -174.804
lowerback 26.4103 -1.60046 1.82014
upperback 5.51329 -2.66289 1.13781
thorax -8.50845 -1.79367 1.16495
lowerneck -13.0937 -6.51268 -4.16285
upperneck -3.09878 -8.81103 8.03745
head 1.87529 -4.43826 2.81765
rclavicle -3.01159e-014 9.14409e-015
rhumerus 74.0574 7.5967 19.4362
rradius 42.6909
rwrist -78.4696
rhand -48.6052 -5.53093
rfingers 7.12502
rthumb -21.2498 -34.3861
lclavicle -3.01159e-014 9.14409e-015
lhumerus 74.5296 -14.9384 -17.7199
lradius 31.6256
lwrist 20.5395
lhand -46.9676 18.6619
lfingers 7.12502
lthumb -19.6761 47.6861
rfemur -27.4531 -7.95276 22.5536
rtibia 85.3687
rfoot -20.6373 -5.07113
rtoes -9.43315
lfemur -30.3287 3.33177 -13.3525
ltibia 85.2865
lfoot -22.1574 -7.12965
ltoes -21.1024
41
root 0.473883 14.7676 -0.172125 169.55 -9.89091 -174.784
lowerback 26.6452 -1.59158 1.83503
upperback 5.43869 -2.63544 1.11757
thorax -8.7125 -1.77744 1.13871
lowerneck -12.9163 -6.50396 -4.2246
upperneck -3.31582 -8.79869 8.1517
head 1.78076 -4.44164 2.87584
rclavicle 5.57591e-014 -4.01545e-014
rhumerus 73.8665 6.97939 19.2584
rradius 42.6385
rwrist -78.6583
rhand -48.5198 -5.38626
rfingers 7.12502
rthumb -21.1678 -34.2506
lclavicle 5.57591e-014 -4.01545e-014
lhumerus 74.2591 -14.2824 -17.8469
lradius 31.7239
lwrist 21.0506
lhand -46.9674 18.2543
lfingers 7.12502
lthumb -19.6759 47.2785
rfemur -28.3322 -7.97261 22.4458
rtibia 87.4566
rfoot -22.9498 -4.7446
rtoes -9.95591
lfemur -31.4911 3.03998 -13.2056
ltibia 87.3394
lfoot -24.1828 -7.45697
ltoes -20.4029
42
root 0.487645 14.5086 -0.162634 169.705 -9.86121 -174.808
lowerback 26.7991 -1.57448 1.81804
upperback 5.3485 -2.60207 1.08143
thorax -8.89313 -1.75491 1.10722
lowerneck -12.7365 -6.50347 -4.32092
upperneck -3.56526 -8.79671 8.33711
head 1.6823 -4.45103 2.96432
rclavicle -4.47266e-014 2.14687e-014
rhumerus 73.6743 6.32678 19.1825
rradius 42.5951
rwrist -78.9104
rhand -48.4819 -5.23266
rfingers 7.12502
rthumb -21.1314 -34.1011
lclavicle -4.47266e-014 2.14687e-014
lhumerus 73.9788 -13.5889 -18.0185
lradius 31.8394
lwrist 21.52
lhand -46.9392 17.9368
lfingers 7.12502
lthumb -19.6488 46.9638
rfemur -29.3358 -8.03292 22.3032
rtibia 89.6534
rfoot -25.3094 -4.49652
rtoes -10.7113
lfemur -32.7289 2.82071 -13.1119
ltibia 89.5466
lfoot -26.2502 -7.76962
ltoes -19.8346
